<?xml version="1.0" encoding="utf-8"?>
<!-- Generator: Adobe Illustrator 17.1.0, SVG Export Plug-In . SVG Version: 6.00 Build 0)  -->
<!DOCTYPE svg PUBLIC "-//W3C//DTD SVG 1.1//EN" "http://www.w3.org/Graphics/SVG/1.1/DTD/svg11.dtd">
<svg version="1.1" id="Layer_1" xmlns="http://www.w3.org/2000/svg" xmlns:xlink="http://www.w3.org/1999/xlink" x="0px" y="0px"
	 viewBox="0 0 960 560" enable-background="new 0 0 960 560" xml:space="preserve">
<g>
	<path fill="#444444" d="M929.3,352.6c-0.3,1.3-0.5,2.1-0.8,2.8c-4.6,11.2-9.2,22.5-13.7,33.7c-0.6,1.6-1.6,2.1-3.2,2.1
		c-250.5-0.1-500.9-0.1-751.4,0.1c-2.5,0-4-0.8-5.5-2.9c-17.8-26.4-35.7-52.7-53.5-79.1c-22.9-33.8-45.8-67.6-68.7-101.4
		c-7.2-10.7-14.5-21.4-21.8-32.2c-0.4-0.6-0.8-1.3-1.3-2.4c1.5-0.2,2.6-0.4,3.7-0.4c13.3-0.1,26.6-0.1,39.9-0.1c1.7,0,2.8,0.5,3.8,2
		c22.1,32.7,44.3,65.4,66.4,98.1c16.9,24.9,33.8,49.8,50.5,75c2.9,4.3,6,5,10.6,5c245.9-0.1,491.9-0.1,737.9-0.1
		C924.5,352.6,926.7,352.6,929.3,352.6z"/>
	<path fill="#444444" d="M948.9,304.1c-1,2.5-1.8,4.8-2.7,7c-3.9,9.7-7.8,19.3-11.7,29c-1.6,3.9-1.6,3.9-6.1,3.9
		c-30.4,0-60.8,0-91.2,0c-66.5-0.1-133-0.1-199.5-0.1c-33.8,0-67.6,0-101.5-0.1c-99.6-0.2-199.4-0.3-299-0.5
		c-16.6,0-33.3-0.1-49.9,0c-2.3,0-3.8-0.6-5.1-2.6c-11.2-16.7-22.6-33.3-34-50c-13-19.1-25.9-38.3-38.9-57.4
		c-8.4-12.4-16.8-24.6-25.3-37c-5-7.3-9.8-14.6-14.7-21.9c-0.3-0.4-0.4-0.8-0.8-1.5c0.9-0.1,1.5-0.3,2.2-0.3
		c14.5-0.1,29-0.1,43.5-0.1c1.9,0,3.1,0.5,4.3,2.2c18.9,28,38,55.9,57,83.9c9.4,13.9,18.9,27.8,28.2,41.8c1.1,1.7,2.4,2.4,4.4,2.4
		c11.2-0.1,22.3,0,33.5,0c62.8,0,125.6,0,188.4,0.1c100.9,0.1,201.8,0.3,302.8,0.4c31.6,0.1,63.2,0,94.7,0.1
		c39.6,0.1,79.1,0.3,118.7,0.4C946.9,304,947.7,304,948.9,304.1z"/>
	<path fill="#444444" d="M365.7,265.8c-5.1,0-10.3,0.1-15.4,0c-2.1-0.1-2.6,0.7-2.3,2.8c1.5,8.2,6.7,13,14.4,12.9
		c5.2-0.1,8.7-2.6,10.8-7.1c0.9-1.9,1.8-2.5,3.8-2.3c6.6,0.6,7,1.3,3.6,7.1c-4.6,7.8-12,10-20.3,9.6C345.1,288,339,277,338.9,265
		c-0.1-7.2,0.9-14,5.9-19.6c6-6.7,13.7-8.3,22.1-6.4c8,1.8,13,7.1,15.1,14.9c0.9,3,0.9,6.2,1.2,9.3c0.2,1.9-0.6,2.7-2.6,2.7
		C375.8,265.7,370.7,265.8,365.7,265.8z M361.4,258.6c3.3,0,6.6-0.1,10,0.1c2.3,0.1,3.1-0.6,2.5-3c-1.4-6.2-6-10.1-12.2-10.1
		c-6.6,0-11.6,4-13.1,10.3c-0.5,2.2,0.2,2.8,2.2,2.7C354.4,258.5,357.9,258.6,361.4,258.6z"/>
	<path fill="#444444" d="M532.5,265.6c-1.7,0.1-2.5,0.2-3.4,0.2c-9.8,0-19.6,0-29.4,0c-2.9,0-3.2,0.4-2.8,3.3
		c1.5,10.2,12.3,15.8,20.5,10.4c2-1.3,3.5-3.6,4.7-5.7c0.9-1.5,1.8-2.1,3.4-1.8c1.1,0.2,2.1,0.3,3.2,0.5c3.4,0.5,3.5,0.7,2.2,3.8
		c-3.7,8.6-12.3,13.3-21.8,12.5c-16.7-1.3-22.5-13.9-21.3-28.2c0.5-6.5,2.5-12.4,7.6-17c9.4-8.6,30.8-7.8,35.6,10.3
		C531.8,257.5,531.9,261.4,532.5,265.6z M522.7,258.3c0.1-7.1-4.5-12.1-11.7-12.8c-6.2-0.7-12.2,4-13.8,10.4c-0.5,2.1,0,2.8,2.2,2.7
		c7-0.1,14,0,21-0.1C521.2,258.5,522,258.4,522.7,258.3z"/>
	<path fill="#444444" d="M460.5,265.9c-12.3,0-23.8,0-35.6,0c0.2,5.7,1.9,10.3,6.6,13.4c4.5,3,9.4,3.2,13.9,0.3
		c2.1-1.3,3.7-3.6,5-5.8c0.9-1.5,1.7-2.2,3.3-1.8c0.5,0.1,1.1,0.1,1.6,0.2c5.2,0.6,5.4,0.9,3.1,5.6c-3.6,7.1-9.8,10.4-17.4,10.9
		c-8.7,0.5-16.4-1.7-21.4-9.7c-5.1-8-5-23.3,0.3-31.2c5.7-8.4,13.9-10.7,23.4-9c9.2,1.7,14.3,7.8,16.3,16.6
		C460.2,258.7,460.2,262.2,460.5,265.9z M451,258.3c0-7.7-5.9-13.3-13.3-13c-6.8,0.3-12.6,6.5-12,13
		C434.1,258.3,442.5,258.3,451,258.3z"/>
	<path fill="#444444" d="M247.5,221.2c0,7.6,0,15,0,22.8c1.1-0.8,1.7-1.2,2.3-1.7c6.6-5,13.7-5.5,21.1-2.2c5,2.2,7,6.6,7.3,11.8
		c0.3,6.3,0.4,12.6,0.4,18.9c0.1,4.8-0.1,9.6,0,14.3c0,1.8-0.7,2.6-2.5,2.6c-7.4-0.1-6,0.4-6.1-5.7c-0.1-8.3,0-16.6-0.1-24.8
		c-0.1-7.3-3.1-11.3-8.9-11.6c-7.1-0.3-12.6,4.2-13,11.2c-0.4,7.3-0.4,14.6-0.5,21.9c-0.1,1.7,0,3.4,0,5.1c0,3.8,0,3.8-3.9,3.8
		c-5,0-4.5,0.3-4.5-4.5c0-19.5,0-39,0-58.6c0-3.5,0-3.4,3.5-3.4C244.1,221.2,245.6,221.2,247.5,221.2z"/>
	<path fill="#444444" d="M790.7,244.5c6.6-6.6,14-7.6,22-4.8c5,1.8,7.8,5.5,8.6,10.8c0.2,1.3,0.4,2.7,0.4,4
		c0.1,10.1-0.1,20.1,0.1,30.2c0,2.3-0.8,3.2-3.1,3.1c-6.5-0.2-5.5,0.5-5.6-5.4c-0.1-8.5,0-16.9,0-25.4c0-6.9-3-10.7-8.6-11.2
		c-6.4-0.5-11.9,3.5-13,9.6c-0.3,1.9-0.4,3.9-0.4,5.9c-0.1,7.9-0.1,15.8,0,23.8c0,2.1-0.7,2.9-2.8,2.8c-6.7-0.2-5.9,0.8-5.9-5.9
		c-0.1-13.1-0.1-26.2,0.1-39.4c0-1,0.7-2.9,1.3-3c2-0.3,4.2-0.3,6,0.3C790.4,240.1,790.3,242.6,790.7,244.5z"/>
	<path fill="#444444" d="M703.6,253.7c-2.9,0.4-5,0.9-7.1,1.1c-0.5,0.1-1.5-0.6-1.7-1.1c-3.3-6.6-6.4-8.8-11.4-8.2
		c-6.5,0.8-10.4,4.3-11.7,11.1c-1.1,5.5-1.1,11.1,0.8,16.5c1.8,5.2,6.5,8.6,11.6,8.5c5.8-0.2,9.9-3.5,11.2-9.3
		c0.5-2.3,1.5-2.6,3.5-2.3c6,0.8,6.4,1.3,3.9,6.9c-3.4,7.8-10.2,12.1-19.1,12c-8.8-0.1-16.3-4.9-19.3-12.7
		c-3.3-8.8-3.1-17.7,0.5-26.3c3.2-7.7,11.9-12.3,20.5-11.6c7,0.5,12.8,2.9,16.2,9.4C702.3,249.4,702.8,251.4,703.6,253.7z"/>
	<path fill="#444444" d="M580.5,253.7c-2.6,0.4-4.8,0.9-6.9,1.1c-0.6,0.1-1.6-0.6-1.8-1.1c-2.3-7.2-7.4-8.7-12.8-8
		c-5.1,0.6-9.2,4.9-10.5,11.2c-1,5.2-0.9,10.6,0.6,15.7c1.7,5.5,6.5,9.1,12,9c5.3-0.1,9.4-3.3,10.9-9.1c0.6-2.5,1.8-2.9,4-2.6
		c5.5,0.8,5.5,0.8,3.8,6c-3,9.3-13,14.5-23.8,12.3c-8.3-1.7-13.5-6.8-15.8-14.8c-2-7.2-1.7-14.4,0.6-21.5
		c3.3-10.3,12.8-14.2,22-13.7c7.2,0.4,13,3.6,16,10.5C579.6,250.2,579.9,251.8,580.5,253.7z"/>
	<path fill="#444444" d="M830.6,263.6c1.1-4.6,1.8-9.3,3.4-13.7c2.2-6.2,7.3-9.4,13.5-10.9c6-1.4,11.8-1,17.2,2.3
		c3.9,2.4,6.4,6,7.5,10.5c0.4,1.5,0,2.3-1.5,2.5c-0.5,0.1-1.1,0.2-1.6,0.3c-4.3,0.6-4.3,0.6-6.3-3.2c-3.8-7.1-13.6-7.7-19.1-1.2
		c-4.9,5.8-4.9,21.3-0.1,27.1c3.3,4,7.5,5.1,12.4,4.1c4.5-0.9,6.8-4,8.3-8.1c0.4-1.1,1-3,1.6-3c2.3-0.1,4.6,0.4,6.9,0.9
		c0.2,0.1,0.4,1.3,0.3,1.9c-1.5,9.6-11.4,16.6-21.1,15.9c-14.2-1.1-21-11.6-20.6-25C831,263.7,830.8,263.6,830.6,263.6z"/>
	<path fill="#444444" d="M597.8,223.1c0,4.5,0.1,8.9-0.1,13.2c-0.1,2.2,0.7,3.2,2.9,2.9c0.4-0.1,0.7,0,1.1,0
		c3.9,0.1,5.3,2.1,3.9,5.8c-0.2,0.6-1.5,1.1-2.3,1.1c-5.6,0.4-5.6,0.3-5.6,6c0,7.7-0.1,15.3,0,22.9c0.1,4.1,1.1,5.2,5.2,5
		c2.4-0.2,3.1,0.9,3.4,3c0.8,4.8,0.8,5-4.2,5.1c-2.2,0.1-4.5-0.2-6.7-0.6c-3.6-0.8-5.8-3.7-5.9-7.7c-0.2-8.6-0.3-17.3-0.5-25.9
		c0-1.2,0-2.5,0-3.8c0-3.7,0-3.8-3.7-4c-2.3-0.1-2.3-1.6-2.2-3.2c0.1-1.6-0.7-3.6,2.1-3.8c3.8-0.3,3.8-0.4,3.8-4.2
		c0-0.6,0-1.2,0-1.9C589.1,227.3,591.1,224.8,597.8,223.1z"/>
	<path fill="#444444" d="M478.1,221.2c0.1,1.8,0.2,3.1,0.2,4.5c0,19.1,0,38.1,0,57.2c0,0.5-0.1,1.1,0,1.6c0.3,2.6-0.8,3.4-3.4,3.3
		c-6-0.2-5.2,0.5-5.2-5.2c-0.1-19.2,0-38.5,0-57.7c0-3.6,0-3.6,3.5-3.6C474.7,221.2,476.2,221.2,478.1,221.2z"/>
	<path fill="#444444" d="M621.1,244.3c2.5-2.9,4.9-5.9,8.9-5.9c2.7,0,5.4,0.8,8,1.6c0.6,0.2,0.8,1.8,1,2.8c0.1,0.3-0.2,0.7-0.3,1
		c-1.5,4.4-1.5,4.4-5.9,3.6c-4.6-0.9-8.6,1.5-9.7,6.3c-0.8,3.6-1.2,7.3-1.3,10.9c-0.2,6.6-0.1,13.3,0.1,20c0.1,2.2-0.5,3.2-3,3.2
		c-6.6-0.2-5.5,0.5-5.5-5.4c-0.1-13.4,0.1-26.8-0.1-40.2c0-2.4,0.8-3.3,3.1-3c0.6,0.1,1.2,0.1,1.9,0c2.1-0.2,3,0.7,2.8,2.8
		C620.9,242.8,621.1,243.6,621.1,244.3z"/>
	<path fill="#444444" d="M318.9,245.1c1-1.5,1.6-2.3,2.2-3c3.5-4.3,10.6-5.2,14.9-1.8c0.5,0.4,0.6,1.5,0.8,2.2
		c0.1,0.4-0.2,0.9-0.4,1.2c-0.6,1.5-0.9,3.5-2,4.3c-0.8,0.6-2.8-0.4-4.2-0.6c-4.5-0.8-8.5,1.6-9.6,6.2c-0.7,3-1.1,6-1.1,9.1
		c-0.2,7.4-0.1,14.7,0.1,22.1c0.1,2.2-0.6,3-2.9,3c-6.7-0.2-5.7,0.5-5.7-5.5c-0.1-13.3,0-26.6-0.1-39.9c0-2.3,0.5-3.5,3-3.1
		c0.3,0.1,0.5,0,0.8,0c3.9,0,3.9,0,4.1,3.9C318.7,243.5,318.8,244,318.9,245.1z"/>
	<path fill="#444444" d="M644,263.5c0-7.1,0.1-14.2-0.1-21.3c-0.1-2.2,0.6-3,2.9-3c6.6,0.2,5.8-0.6,5.8,5.7c0.1,13,0,26.1,0,39.1
		c0,3.8,0,3.8-3.7,3.8c-5.4-0.1-5,0.5-5-5.1C644.1,276.2,644,269.9,644,263.5z"/>
	<path fill="#444444" d="M770.5,263.7c0,6.9-0.1,13.8,0.1,20.7c0.1,2.4-0.5,3.5-3.1,3.3c-6-0.3-5.6,0.8-5.6-5.7c0-13,0-26,0-39
		c0-3.8,0-3.8,3.7-3.8c5.8,0,5-0.2,5,5.1C770.5,250.8,770.5,257.3,770.5,263.7z"/>
	<path fill="#444444" d="M290.5,263.4c0-7,0.1-14-0.1-21.1c-0.1-2.3,0.6-3.2,3-3.2c5.7,0.1,5.6-0.1,5.6,5.5
		c0,13.2-0.1,26.5,0.1,39.6c0,2.7-0.8,3.6-3.5,3.6c-6-0.2-5.1,0.3-5.2-5.3C290.5,276.1,290.5,269.8,290.5,263.4L290.5,263.4z"/>
	<path fill="#444444" d="M717.1,288.3c-4.4-1.5-4.4-1.5-4.4-6.3c0-4.1,0-4.1,4.2-4c5.6,0,5.8,0.1,5.5,5.5c-0.2,3.8-0.6,7.7-1.5,11.3
		c-0.5,1.8-2.4,3.2-3.8,4.6c-1,0.9-2.2,1.6-3.3-0.1c-1-1.5-1.3-2.5,0.4-3.8C716.5,293.8,717.3,291.3,717.1,288.3z"/>
	<path fill="#444444" d="M882.1,282.8c0.1-5.5-0.6-4.8,5-4.8c5,0,4.8-0.8,4.8,4.8c0,5,0,5-4.9,5c-0.4,0-0.9-0.1-1.3,0
		c-2.6,0.4-3.9-0.5-3.5-3.4C882.2,283.9,882.1,283.3,882.1,282.8z"/>
	<path fill="#444444" d="M290.5,226.2c0.1-5.3-0.6-4.9,4.7-4.9c4,0,4,0,4,4.5c-0.1,5.4,1.1,5.3-5.3,5.4c-2.6,0.1-3.6-0.9-3.3-3.4
		C290.5,227.2,290.5,226.7,290.5,226.2z"/>
	<path fill="#444444" d="M770.5,226.4c0,4.6,0,4.6-4.6,4.6c-4,0-4,0-4-4.3c0.1-6.3-0.6-5.3,5.3-5.6c2.6-0.1,3.7,0.7,3.3,3.3
		C770.4,225.2,770.5,225.8,770.5,226.4z"/>
	<path fill="#444444" d="M644,226c0-5.2-0.5-4.8,4.8-4.8c3.9,0,3.9,0,3.9,4c0,0.1,0,0.2,0,0.3c0,5.9,0.5,5.5-5.5,5.6
		c-2.4,0.1-3.6-0.6-3.2-3.2C644.2,227.3,644,226.7,644,226z"/>
</g>
</svg>
