<?xml version="1.0" encoding="utf-8"?>
<!-- Generator: Adobe Illustrator 17.1.0, SVG Export Plug-In . SVG Version: 6.00 Build 0)  -->
<!DOCTYPE svg PUBLIC "-//W3C//DTD SVG 1.1//EN" "http://www.w3.org/Graphics/SVG/1.1/DTD/svg11.dtd">
<svg version="1.1" id="Layer_1" xmlns:sketch="http://www.bohemiancoding.com/sketch/ns"
	 xmlns="http://www.w3.org/2000/svg" xmlns:xlink="http://www.w3.org/1999/xlink" x="0px" y="0px" viewBox="0 0 184 100"
	 enable-background="new 0 0 184 100" xml:space="preserve">
<title>Untitled 2</title>
<desc>Created with Sketch.</desc>
<g id="Page-1_1_" sketch:type="MSPage">
	<g id="andyet-small_1_" sketch:type="MSLayerGroup">
		<g id="Page-1" sketch:type="MSShapeGroup">
			<g id="andyet-small">
				<path id="Shape" fill="#444444" d="M30.2,31.9l12.5,15.1l0.4-0.4c1.4-1.5,2.6-2.9,3.8-4.3c1.2-1.4,4.3-4.7,5.4-6.2l4.9,8.9
					c-0.8,1.2-1.9,2.6-3.3,4.2c-1.4,1.6-3,3.4-4.9,5.5L62,70.4H48.9L42,61.9c-6.4,6.6-13,9.8-19.9,9.8c-6.2,0-11.4-2-15.7-5.9
					c-4.2-3.9-6.3-8.8-6.3-14.6c0-6.9,3.3-12.7,10-17.2l4.6-3.1c0.1,0,0.2-0.1,0.3-0.2l0.6-0.5c-4.6-4.9-6.9-9.7-6.9-14.4
					c0-4.7,1.5-8.5,4.6-11.4C16.4,1.5,20.4,0,25.4,0c4.8,0,8.7,1.4,11.9,4.3c3.1,2.8,4.7,6.4,4.7,10.8c0,3-0.9,5.7-2.6,8.1
					C37.7,25.6,34.6,28.5,30.2,31.9L30.2,31.9L30.2,31.9z M21.8,37.7l-0.6,0.4c-4.3,3-7.2,5.3-8.8,7.1c-1.5,1.8-2.3,3.7-2.3,5.7
					c0,2.9,1.2,5.5,3.5,7.9c2.4,2.3,5,3.5,7.9,3.5c4.1,0,8.7-2.6,14-7.9L21.8,37.7L21.8,37.7z M24.1,24.5l0.9-0.6
					c1.5-1.1,2.7-2.1,3.7-2.9c1-0.8,1.7-1.5,2.1-2.1c0.9-1.1,1.4-2.5,1.4-4.1c0-1.8-0.6-3.3-1.8-4.4c-1.2-1.1-2.9-1.7-5-1.7
					c-1.9,0-3.5,0.6-4.8,1.8c-1.3,1.1-1.9,2.5-1.9,4.3c0,2,0.8,4,2.4,6l2.6,3.1C23.7,24,23.8,24.2,24.1,24.5L24.1,24.5L24.1,24.5z"
					/>
				<path id="Shape_1_" fill="#444444" d="M47,23.2c2.5,0.2,4.7,0.4,6.8,0.4c2.1,0,4.4,0.1,7,0.1c2.5,0,5,0,7.5-0.1
					c2.5,0,5-0.2,7.5-0.4v1.5c-1.8,0.2-3.5,0.7-5.2,1.6c-1.6,0.9-2.5,2.4-2.5,4.4c0,1.6,0.5,3.8,1.6,6.6c1.1,2.7,2.3,5.7,3.8,8.8
					c1.4,3.2,2.9,6.4,4.4,9.6c1.5,3.3,2.7,6.3,3.6,9.1c0.4-0.8,1-2.2,1.9-4c0.9-1.9,1.8-4,3-6.4c1.1-2.4,2.2-4.9,3.3-7.5
					c1.1-2.6,2.1-5.1,3.1-7.4c0.9-2.3,1.7-4.3,2.3-6c0.6-1.7,0.9-2.9,0.9-3.4c0-1-0.2-1.8-0.7-2.3c-0.5-0.6-1-1-1.7-1.4
					c-0.7-0.4-1.4-0.6-2.3-0.9c-0.9-0.2-1.8-0.4-2.6-0.7v-1.5c1.9,0.2,3.8,0.4,5.7,0.4c1.9,0,3.8,0.1,5.8,0.1c1.9,0,3.7,0,5.5-0.1
					c1.8,0,3.6-0.2,5.5-0.4v1.5c-2.3,0.3-4.5,1.7-6.7,4.2c-2.2,2.5-4.2,5.3-6,8.5c-1.9,3.2-3.5,6.3-4.9,9.4
					c-1.4,3.1-2.5,5.3-3.2,6.8c-3.4,7.1-6.6,13.2-9.4,18.3c-2.8,5.1-5.3,9.3-7.6,12.7c-2.3,3.4-4.3,6.1-6.2,8
					c-1.8,2-3.6,3.5-5.3,4.5c-1.7,1-3.3,1.7-4.9,2c-1.6,0.3-3.3,0.4-5,0.4c-1.5,0-2.9-0.2-4.4-0.6c-1.4-0.4-2.7-1-3.8-1.9
					c-1.1-0.9-2-1.9-2.7-3.3c-0.7-1.3-1-2.9-1-4.7c0-1.6,0.6-3.1,1.8-4.4c1.2-1.3,2.6-2,4.3-2c1.9,0,3.4,0.5,4.6,1.4
					c1.1,0.9,1.7,2.4,1.7,4.4c0,1.4-0.3,2.6-1,3.5c-0.7,0.9-1,1.6-1,2c0,0.5,0.6,0.8,1.8,0.9c1.2,0.1,2.4,0.2,3.5,0.2
					c2.5,0,4.9-1,7.3-3c2.4-2,4.5-4.3,6.3-6.9c1.9-2.6,3.3-5,4.5-7.4c1.2-2.3,1.7-3.8,1.7-4.5c0-0.2-0.3-1.1-0.9-2.5
					c-0.6-1.4-1.4-3.3-2.3-5.5c-1-2.2-2.1-4.8-3.3-7.5c-1.2-2.8-2.5-5.5-3.7-8.3c-1.2-2.7-2.5-5.4-3.7-8c-1.2-2.6-2.3-4.8-3.2-6.6
					c-0.8-1.9-1.5-3.4-2.1-4.5c-0.6-1.1-1.3-2.1-2.1-2.8c-0.8-0.7-1.8-1.2-3-1.7c-1.2-0.4-2.7-0.9-4.6-1.3L47,23.2L47,23.2L47,23.2z
					"/>
				<path id="Shape_2_" fill="#444444" d="M114.5,43.1c0,4.3,0.6,7.8,1.7,10.5c1.1,2.8,2.5,5,4.2,6.6c1.7,1.6,3.5,2.8,5.4,3.4
					c1.9,0.7,11.9,0.4,14.7-0.7c2.8-1.1,5.4-2.8,7.8-5.2l2.1,2c-3.4,3.6-6.8,6.3-10.3,8.2c-3.5,1.9-7.8,2.8-12.7,2.8
					c-3.5,0-6.7-0.7-9.5-2.1c-2.8-1.4-5.2-3.2-7.1-5.5c-2-2.3-3.5-4.9-4.5-7.8c-1-2.9-1.5-6-1.5-9.1c0-3.1,0.5-6.1,1.5-9.1
					c1-2.9,2.5-5.6,4.5-7.8c2-2.3,4.4-4.1,7.1-5.5c2.8-1.4,5.9-2.1,9.5-2.1c6.5,0,11.7,1.8,15.6,5.3c3.9,3.5,6.4,8.9,7.3,16.1H114.5
					L114.5,43.1z M138.5,39.4c-0.3-2.2-0.6-4.2-1-5.9c-0.4-1.8-1.1-3.2-2-4.4c-0.9-1.2-2.1-2.1-3.6-2.7c-1.5-0.6-3.4-0.9-5.7-0.9
					c-1.7,0-3.3,0.4-4.7,1.3c-1.4,0.9-2.7,2-3.7,3.3c-1,1.3-1.8,2.9-2.3,4.5c-0.5,1.7-0.8,3.3-0.8,4.8H138.5L138.5,39.4z"/>
				<path id="Shape_3_" fill="#444444" d="M146.8,27.5v-2c2.6-0.1,4.9-0.7,6.8-2c1.9-1.2,3.5-2.8,4.9-4.7c1.4-1.9,2.6-4,3.5-6.3
					c0.9-2.3,1.8-4.5,2.5-6.6h1.7v17.8h16.9v3.7h-16.9v28.6c0,1.1,0.1,2.1,0.2,3.1c0.1,1,0.4,1.9,0.7,2.8c0.4,0.8,0.9,1.5,1.6,2
					c0.7,0.5,1.7,0.7,2.9,0.7c2.5,0,4.5-0.5,6.2-1.6c1.6-1.1,3.3-2.4,4.9-4.1l1.1,1.2c-1.4,1.2-2.8,2.5-4.1,3.7
					c-1.3,1.3-2.7,2.4-4.1,3.4c-1.4,1-3,1.8-4.7,2.4c-1.7,0.6-3.5,0.9-5.5,0.9c-3.4,0-5.8-1-7-3.1c-1.2-2.1-1.9-4.6-1.9-7.4V27.5
					H146.8L146.8,27.5z"/>
			</g>
		</g>
	</g>
</g>
</svg>
