<?xml version="1.0" encoding="utf-8"?>
<!-- Generator: Adobe Illustrator 17.1.0, SVG Export Plug-In . SVG Version: 6.00 Build 0)  -->
<!DOCTYPE svg PUBLIC "-//W3C//DTD SVG 1.1//EN" "http://www.w3.org/Graphics/SVG/1.1/DTD/svg11.dtd">
<svg version="1.1" id="Layer_1" xmlns="http://www.w3.org/2000/svg" xmlns:xlink="http://www.w3.org/1999/xlink" x="0px" y="0px"
	 viewBox="0 0 830.4 560" enable-background="new 0 0 830.4 560" xml:space="preserve">
<g>
	<path fill="#444444" d="M224.8,161.4c36.6-0.2,69.1,6.1,100.6,18c3.2,1.2,3.3,1.4,1.9,4.4c-17.5,36.8-31.4,75.1-44.4,113.6
		c-1,2.9-2.1,5.7-3,8.6c-0.6,1.9-1.3,1.9-2.8,0.7c-13.4-11.6-28.8-18.9-46.4-21.3c-20.8-2.9-40.1,0.9-56.6,14.8
		c-7.4,6.2-12.5,14.1-16.1,23.1c-6.2,15.8-7.5,31.7-0.8,47.6c8.1,19.4,22.6,32.2,43.7,34.5c22.2,2.4,42.8-2.9,60-18.3
		c9.6-8.6,16.7-19,22.8-30.2c8.4-15.4,14.4-31.7,20-48.3c11.6-33.8,24.2-67.3,38.7-100.1c16.2-36.7,34.6-72.3,57.2-105.5
		c14.6-21.5,31-41.6,50.1-59.3c14-13.1,29.3-24.4,47.5-31.2c14.8-5.5,29.9-7.2,45.2-2.1c18.9,6.4,31.5,24.1,31.7,44.1
		c0.2,15.3-5.6,28.4-14.9,40.1c-10.9,13.8-23,26.7-34.8,39.7c-23.1,25.4-42.1,53.4-56.4,84.7c-14.3,31.2-25,63.6-34.5,96.4
		c-9.5,32.8-20.5,65-35.5,95.7c-13.2,27-29.3,52.1-51.2,73c-23.4,22.3-50.9,37-82.5,44.1c-15.1,3.4-30.5,5.1-46,5.5
		c-25.4,0.6-50.5-1.2-75.2-7.5c-25.7-6.6-49-17.8-69.4-35c-14.6-12.3-26.3-26.9-35.5-43.7c-10.9-20-17.3-41.4-19.6-63.9
		c-3.4-32.1,1.1-63.3,12.2-93.6c7.3-20,17.4-38.4,30.8-55c15.1-18.7,33.2-33.8,54-45.5c25.7-14.5,53.4-23,82.7-26.5
		C208.1,161.9,217.8,161.3,224.8,161.4z"/>
	<path fill="#444444" d="M810.8,168.8c-0.4,12.9-4.6,24.2-11.6,34.5c-9,13.3-18,26.7-25.9,40.7c-11.9,20.9-22.3,42.4-31.4,64.6
		c-18.6,45.1-32.1,91.8-43.3,139.2c-6.1,25.5-11.4,51.1-16.2,76.9c-0.5,2.7-1.6,3.2-4.1,2.9c-28.9-3.2-57.5-8.4-85.4-16.6
		c-12.4-3.6-24.6-7.6-36.9-11.4c-2.6-0.8-3.4-1.9-2.9-4.8c8.4-50.4,19.6-100.2,36.5-148.5c14-40,32.3-78,54.6-113.9
		c15.5-24.9,32.2-48.8,50.2-71.9c11.5-14.8,25.7-26.5,43.8-32.4c19.8-6.5,39-5.8,56.3,7.5C805.4,144,810.3,155.6,810.8,168.8z"/>
	<path fill="#444444" d="M628.8,197.4c-0.3,9.7-3.9,20-10.1,29.5c-11.2,17-21.2,34.6-30,52.9c-11.3,23.6-20.2,48.1-27.8,73.2
		c-10.1,33.1-17.8,66.9-24.6,100.8c-2.2,11-4.2,22-6.3,32.9c-0.7,3.6-0.8,3.6-4.1,2.5c-19.5-6.3-38.6-13.8-56.9-22.9
		c-18.5-9.3-35.9-20.5-52.5-32.8c-1.7-1.3-1.6-2.4-0.8-4.1c13.9-30.1,25.8-60.9,35.8-92.5c7.6-23.8,14.2-47.8,22.2-71.5
		c10.2-30,24.9-57.5,45.7-81.6c10.9-12.6,23.4-23.1,39.4-28.8c15.9-5.7,31.7-5.9,47,2.2C620.1,164.9,628.9,179.4,628.8,197.4z"/>
</g>
</svg>
